<svg width="36" height="36" viewBox="0 0 36 36" fill="none" xmlns="http://www.w3.org/2000/svg">
<path d="M18.039 3C10.6994 2.99906 4.44275 8.32198 3.26762 15.5669C2.0925 22.8118 6.34592 29.8395 13.3095 32.1585C14.0595 32.2935 14.328 31.833 14.328 31.437C14.328 31.0815 14.316 30.1395 14.3115 28.887C10.149 29.787 9.27002 26.88 9.27002 26.88C8.996 25.9754 8.40689 25.199 7.60952 24.6915C6.25952 23.763 7.71302 23.784 7.71302 23.784C8.67404 23.9158 9.51985 24.4852 10.0035 25.326C10.4129 26.0704 11.1027 26.6204 11.9195 26.8539C12.7363 27.0874 13.6125 26.985 14.3535 26.5695C14.4232 25.8105 14.7608 25.1011 15.306 24.5685C11.985 24.192 8.49302 22.908 8.49302 17.1735C8.47459 15.6903 9.02537 14.2564 10.032 13.167C9.57655 11.876 9.63019 10.4599 10.182 9.207C10.182 9.207 11.4375 8.8035 14.295 10.7385C16.7458 10.0665 19.3323 10.0665 21.783 10.7385C24.642 8.802 25.896 9.207 25.896 9.207C26.4504 10.4593 26.5041 11.8764 26.046 13.167C27.0564 14.2563 27.6067 15.694 27.582 17.1795C27.582 22.929 24.087 24.192 20.754 24.5625C21.473 25.2976 21.8417 26.306 21.7665 27.3315C21.7665 29.3325 21.7485 30.9465 21.7485 31.437C21.7485 31.8375 22.0155 32.3025 22.779 32.1555C29.7397 29.8325 33.9886 22.8045 32.811 15.5615C31.6335 8.31848 25.3771 2.99832 18.039 3Z" fill="white"/>
</svg>
