<svg width="1078" height="933" viewBox="0 0 1078 933" fill="none" xmlns="http://www.w3.org/2000/svg">
<path d="M667.5 894.865C654.7 922.065 614.333 932.531 596.5 932.365C630.9 918.765 647 895.865 651.5 888.365C663 869.198 667 838.365 658.5 819.865C648.5 788.365 643.833 756.032 643 735.865C643 663.276 676.517 638.157 692.583 623.697C692.886 623.415 693.191 623.138 693.5 622.865L674 607.365C659.5 592.365 653.413 578.952 640.5 558.865C622.5 530.865 617.833 478.365 613 448.865C607 378.464 625.833 323.865 636 305.365C660.4 257.765 719.167 237.532 745.5 233.365C819 221.735 870 201.274 898 188.865C933.2 173.265 974.667 121.532 991 100.865C1031.7 49.3647 1044 10.3649 1057 1.36492C1061.07 -1.45138 1077.33 12.3651 1076.5 31.3651C1066.5 58.3651 1050.5 75.865 1025.5 116.365C1000.5 156.865 988 182.365 961 206.365C920.5 236.365 893.5 247.032 870 253.865C844.4 265.865 780 278.698 745.5 287.365C705.1 304.565 686 336.865 681.5 350.865C699.5 334.465 762.667 317.698 792 311.365C850.5 298.734 864.86 298.874 898 278.865C924.5 262.865 975.1 225.074 998 200.865C1015.5 182.365 1050.5 106.365 1066.5 83.3648C1071.5 137.865 1066.5 172.865 1050.5 192.865C1025 233.365 958.014 279.238 911 311.365C881 331.865 833.5 337.365 796 337.365C762.5 337.365 733 350.865 717 358.365C681.5 381.865 666.5 401.031 665.5 411.865C698.3 378.665 728.5 366.365 758 358.365C839 343.864 898.333 341.198 902.5 337.365C918.9 333.365 938 329.865 988 300.865C1011.28 287.365 1032 265.365 1050.5 236.365C1050.5 265.365 1023.17 306.865 1015.5 318.865C1008 337.365 933.5 358.365 911 365.365C881 374.699 799.86 375.141 758 385.865C697.5 401.365 676.833 428.865 659.5 448.865C698.3 406.465 790.5 396.032 833.5 396.365C890.5 393.365 899 394.198 911 392.365C944 387.323 961.5 368.865 982.5 358.365C962.1 406.365 933.5 412.215 921.5 416.365C890.5 427.085 792 426.365 733 440.865C678.5 460.865 677.833 475.531 674 489.865C699.2 470.265 718.436 462.424 733 459.865C770 453.365 784 459.865 805.5 459.865C837 459.865 861.5 447.365 861.5 453.365C861.5 458.165 828 479.24 801 484.865C777 489.865 747.715 484.635 713.5 496.365C696 502.365 693.5 505.865 681 515.365C673.119 521.355 666 529.865 659.5 550.365C654.744 565.365 684.667 614.365 693.5 622.865C693.201 623.138 692.895 623.416 692.583 623.697C669.338 645.337 663.165 693.983 663 715.865C663 731.065 664.5 749.865 666.5 759.865C666.5 766.365 667.5 781.865 681.5 833.865C685.5 859.865 676 881.865 667.5 894.865Z" fill="white"/>
<path d="M693.5 622.865C669.5 644.065 663.167 693.698 663 715.865C663 731.065 664.5 749.865 666.5 759.865C666.5 766.365 667.5 781.865 681.5 833.865C685.5 859.865 676 881.865 667.5 894.865C654.7 922.065 614.333 932.531 596.5 932.365C630.9 918.765 647 895.865 651.5 888.365C663 869.199 667 838.365 658.5 819.865C648.5 788.365 643.833 756.032 643 735.865C643 661.865 677.833 637.198 693.5 622.865ZM693.5 622.865C684.667 614.365 654.744 565.365 659.5 550.365C666 529.865 673.119 521.355 681 515.365C693.5 505.865 696 502.365 713.5 496.365C747.715 484.635 777 489.865 801 484.865C828 479.24 861.5 458.165 861.5 453.365C861.5 447.365 837 459.865 805.5 459.865C784 459.865 770 453.365 733 459.865C718.436 462.424 699.2 470.265 674 489.865C677.833 475.531 678.5 460.865 733 440.865C792 426.365 890.5 427.085 921.5 416.365C933.5 412.215 962.1 406.365 982.5 358.365C961.5 368.865 944 387.323 911 392.365C899 394.198 890.5 393.365 833.5 396.365C790.5 396.032 698.3 406.465 659.5 448.865C676.833 428.865 697.5 401.365 758 385.865C799.86 375.141 881 374.699 911 365.365C933.5 358.365 1008 337.365 1015.5 318.865C1023.17 306.865 1050.5 265.365 1050.5 236.365C1032 265.365 1011.28 287.365 988 300.865C938 329.865 918.9 333.365 902.5 337.365C898.333 341.198 839 343.864 758 358.365C728.5 366.365 698.3 378.665 665.5 411.865C666.5 401.031 681.5 381.865 717 358.365C733 350.865 762.5 337.365 796 337.365C833.5 337.365 881 331.865 911 311.365C958.014 279.238 1025 233.365 1050.5 192.865C1066.5 172.865 1071.5 137.865 1066.5 83.3648C1050.5 106.365 1015.5 182.365 998 200.865C975.1 225.074 924.5 262.865 898 278.865C864.86 298.874 850.5 298.734 792 311.365C762.667 317.698 699.5 334.465 681.5 350.865C686 336.865 705.1 304.565 745.5 287.365C780 278.698 844.4 265.865 870 253.865C893.5 247.032 920.5 236.365 961 206.365C988 182.365 1000.5 156.865 1025.5 116.365C1050.5 75.865 1066.5 58.3651 1076.5 31.3651C1077.33 12.3651 1061.07 -1.45138 1057 1.36492C1044 10.3649 1031.7 49.3647 991 100.865C974.667 121.532 933.2 173.265 898 188.865C870 201.274 819 221.735 745.5 233.365C719.167 237.532 660.4 257.765 636 305.365C625.833 323.865 607 378.464 613 448.865C617.833 478.365 622.5 530.865 640.5 558.865C653.413 578.952 659.5 592.365 674 607.365L693.5 622.865Z" stroke="white"/>
<path d="M409.031 894.865C421.831 922.065 462.198 932.531 480.031 932.365C445.631 918.765 429.531 895.865 425.031 888.365C413.531 869.198 409.531 838.365 418.031 819.865C428.031 788.365 432.698 756.032 433.531 735.865C433.531 663.276 400.014 638.157 383.948 623.697C383.645 623.415 383.34 623.138 383.031 622.865L402.531 607.365C417.031 592.365 423.118 578.952 436.031 558.865C454.031 530.865 458.698 478.365 463.531 448.865C469.531 378.464 450.698 323.865 440.531 305.365C416.131 257.765 357.365 237.532 331.031 233.365C257.531 221.735 206.531 201.274 178.531 188.865C143.331 173.265 101.865 121.532 85.5312 100.865C44.8296 49.3647 32.5312 10.3649 19.5312 1.36492C15.4633 -1.45138 -0.802094 12.3651 0.03125 31.3651C10.0312 58.3651 26.0312 75.865 51.0312 116.365C76.0312 156.865 88.5312 182.365 115.531 206.365C156.031 236.365 183.031 247.032 206.531 253.865C232.131 265.865 296.531 278.698 331.031 287.365C371.431 304.565 390.531 336.865 395.031 350.865C377.031 334.465 313.865 317.698 284.531 311.365C226.031 298.734 211.671 298.874 178.531 278.865C152.031 262.865 101.432 225.074 78.5312 200.865C61.0312 182.365 26.0312 106.365 10.0312 83.3648C5.03125 137.865 10.0312 172.865 26.0312 192.865C51.5312 233.365 118.517 279.238 165.531 311.365C195.531 331.865 243.031 337.365 280.531 337.365C314.031 337.365 343.531 350.865 359.531 358.365C395.031 381.865 410.031 401.031 411.031 411.865C378.231 378.665 348.031 366.365 318.531 358.365C237.531 343.864 178.198 341.198 174.031 337.365C157.631 333.365 138.531 329.865 88.5312 300.865C65.2549 287.365 44.5312 265.365 26.0312 236.365C26.0312 265.365 53.3646 306.865 61.0312 318.865C68.5312 337.365 143.031 358.365 165.531 365.365C195.531 374.699 276.671 375.141 318.531 385.865C379.031 401.365 399.698 428.865 417.031 448.865C378.231 406.465 286.031 396.032 243.031 396.365C186.031 393.365 177.531 394.198 165.531 392.365C132.531 387.323 115.031 368.865 94.0312 358.365C114.431 406.365 143.031 412.215 155.031 416.365C186.031 427.085 284.531 426.365 343.531 440.865C398.031 460.865 398.698 475.531 402.531 489.865C377.331 470.265 358.095 462.424 343.531 459.865C306.531 453.365 292.531 459.865 271.031 459.865C239.531 459.865 215.031 447.365 215.031 453.365C215.031 458.165 248.531 479.24 275.531 484.865C299.531 489.865 328.816 484.635 363.031 496.365C380.531 502.365 383.031 505.865 395.531 515.365C403.412 521.355 410.531 529.865 417.031 550.365C421.787 565.365 391.865 614.365 383.031 622.865C383.33 623.138 383.636 623.416 383.948 623.697C407.193 645.337 413.367 693.983 413.531 715.865C413.531 731.065 412.031 749.865 410.031 759.865C410.031 766.365 409.031 781.865 395.031 833.865C391.031 859.865 400.531 881.865 409.031 894.865Z" fill="white"/>
</svg>
